# xmcd
#
# Track frame offsets: 
#        150
#        15293
#        31886
#        47141
#        63663
#        78869
#        94925
#        110962
#        126428
#        141044
#        154451
#        170439
#        184485
#        198807
#        215549
#        232982
#
# Disc length: 3305 seconds
#
# Revision: 1
# Processed by: cddbd v1.5.2PL0 Copyright (c) Steve Scherf et al.
# Submitted via: ExactAudioCopy v1.0b1
#
DISCID=e10ce710
DTITLE=LINDA FELLER - Liebe ist wie ein Haus
DYEAR=1900
DGENRE=Country
TTITLE0=Ich führ Buch über jede Träne
TTITLE1=Solang ich aufwach neben dir
TTITLE2=Mit mir da machst du keinen Fehler
TTITLE3=Ein verliebtes Mädchen
TTITLE4=Immer, wenn mein Herz schlägt
TTITLE5=Pro Woche zweimal Sonntag
TTITLE6=Liebe ist wie ein Haus
TTITLE7=Du bist immer bei mir
TTITLE8=Mein Make-Up von gestern
TTITLE9=Ich tanz `heut`nacht meine Erinnerungen fort
TTITLE10=Dann bist du der Mann für mich
TTITLE11=Eine Prise Liebe
TTITLE12=Ich glaub, ich bleibe...
TTITLE13=Hab mich einfach lieb
TTITLE14=Wie der Mond und die Sterne
TTITLE15=Mit mir da machst du keinen Fehler
EXTD=
EXTT0=
EXTT1=
EXTT2=
EXTT3=
EXTT4=
EXTT5=
EXTT6=
EXTT7=
EXTT8=
EXTT9=
EXTT10=
EXTT11=
EXTT12=
EXTT13=
EXTT14=
EXTT15=
PLAYORDER=
